<svg xmlns="http://www.w3.org/2000/svg" viewBox="0 0 80 79" width="80" height="79">
	<style>
		tspan { white-space:pre }
		.shp0 { fill: #000000;stroke: #000000;stroke-width: 2 } 
		.shp1 { fill: #ed2c4d } 
	</style>
	<g id="Buttons">
		<g id="Bottom Row">
			<g id="B">
				<path id="Ellipse 1" class="shp0" d="M39.76 1.26C60.92 1.26 78.08 18.43 78.08 39.63C78.08 60.82 60.92 78 39.76 78C18.6 78 1.44 60.82 1.44 39.63C1.44 18.43 18.6 1.26 39.76 1.26Z" />
				<path id="B" class="shp1" d="M27.19 58.62C27.19 59.2 27.65 59.72 28.28 59.72L41.78 59.72C49.02 59.72 54.31 55.06 54.31 48.61C54.31 43.32 50.17 40.5 47.13 39.23C49.83 37.68 53.1 34.52 53.1 30.09C53.1 24.05 48.1 19.44 41.15 19.44L28.28 19.44C27.65 19.44 27.19 19.96 27.19 20.54L27.19 58.62ZM33.05 36.93L33.05 24.85L40.81 24.85C44.49 24.85 46.73 27.27 46.73 30.78C46.73 34.23 44.49 36.93 40.81 36.93L33.05 36.93ZM32.99 54.42L32.99 42.11L40.87 42.11C44.6 42.11 47.93 44.64 47.93 48.15C47.93 51.72 45.23 54.42 41.73 54.42L32.99 54.42Z" />
			</g>
		</g>
	</g>
</svg>