<svg xmlns="http://www.w3.org/2000/svg" viewBox="0 0 80 79" width="80" height="79">
	<style>
		tspan { white-space:pre }
		.shp0 { fill: #000000;stroke: #000000;stroke-width: 2 } 
		.shp1 { fill: #7accf8 } 
	</style>
	<g id="Buttons">
		<g id="Bottom Row">
			<g id="X">
				<path id="Ellipse 1" class="shp0" d="M39.72 1.26C60.88 1.26 78.03 18.43 78.03 39.63C78.03 60.82 60.88 78 39.72 78C18.55 78 1.4 60.82 1.4 39.63C1.4 18.43 18.55 1.26 39.72 1.26Z" />
				<path id="X" class="shp1" d="M24.43 58.11C23.97 58.85 24.43 59.72 25.46 59.72L29.89 59.72C30.35 59.72 30.69 59.43 30.86 59.2L39.77 44.47L39.88 44.47L48.9 59.2C49.02 59.43 49.42 59.72 49.88 59.72L54.31 59.72C55.28 59.72 55.74 58.91 55.28 58.11L43.5 39.06L54.88 21.05C55.34 20.31 54.88 19.44 53.9 19.44L49.02 19.44C48.56 19.44 48.22 19.73 48.1 19.96L39.88 33.71L39.83 33.71L31.73 19.96C31.55 19.67 31.15 19.44 30.75 19.44L25.87 19.44C24.89 19.44 24.43 20.31 24.89 21.05L36.27 39.06L24.43 58.11Z" />
			</g>
		</g>
	</g>
</svg>