<svg xmlns="http://www.w3.org/2000/svg" viewBox="0 0 80 79" width="80" height="79">
	<style>
		tspan { white-space:pre }
		.shp0 { fill: #000000;stroke: #000000;stroke-width: 2 } 
		.shp1 { fill: #fefa4f } 
	</style>
	<g id="Buttons">
		<g id="Bottom Row">
			<g id="Y">
				<path id="Ellipse 1" class="shp0" d="M40.24 1.26C61.4 1.26 78.56 18.43 78.56 39.63C78.56 60.82 61.4 78 40.24 78C19.08 78 1.92 60.82 1.92 39.63C1.92 18.43 19.08 1.26 40.24 1.26Z" />
				<path id="Y" class="shp1" d="M37.35 59.51C37.35 60.09 37.81 60.6 38.44 60.6L42.23 60.6C42.81 60.6 43.33 60.09 43.33 59.51L43.33 41.16L56.94 22C57.4 21.25 56.94 20.33 56.02 20.33L51.71 20.33C51.31 20.33 50.97 20.62 50.8 20.85L40.4 35.52L30 20.85C29.82 20.62 29.54 20.33 29.08 20.33L24.83 20.33C23.91 20.33 23.45 21.25 23.91 22L37.35 41.21L37.35 59.51Z" />
			</g>
		</g>
	</g>
</svg>